<svg width="800" height="640" viewBox="0 0 800 640" fill="none" xmlns="http://www.w3.org/2000/svg">
  <rect width="800" height="640" rx="40" fill="#EAF6FF"/>
  <circle cx="138" cy="114" r="64" fill="#CDEBFF"/>
  <circle cx="682" cy="150" r="86" fill="#DDF7E7"/>
  <circle cx="614" cy="526" r="94" fill="#FFE2D1"/>
  <rect x="94" y="418" width="612" height="128" rx="28" fill="#FFFFFF"/>
  <rect x="140" y="390" width="530" height="36" rx="18" fill="#9ED8B7" opacity="0.75"/>

  <g>
    <circle cx="408" cy="176" r="52" fill="#F3C7A5"/>
    <rect x="346" y="234" width="124" height="154" rx="34" fill="#FFFFFF"/>
    <rect x="393" y="258" width="30" height="78" rx="10" fill="#1D4ED8"/>
    <rect x="369" y="282" width="78" height="30" rx="10" fill="#1D4ED8"/>
    <path d="M356 154C366 114 393 92 410 92C432 92 451 108 458 154" fill="#1F3A5F"/>
    <rect x="378" y="388" width="24" height="100" rx="12" fill="#1F3A5F"/>
    <rect x="414" y="388" width="24" height="100" rx="12" fill="#1F3A5F"/>
  </g>

  <g>
    <circle cx="242" cy="220" r="46" fill="#8D5A3B"/>
    <path d="M192 218C196 176 222 150 245 150C273 150 291 178 291 220V228H192V218Z" fill="#0F766E"/>
    <rect x="182" y="270" width="118" height="132" rx="28" fill="#F59E0B"/>
    <rect x="218" y="398" width="22" height="88" rx="11" fill="#334155"/>
    <rect x="254" y="398" width="22" height="88" rx="11" fill="#334155"/>
  </g>

  <g>
    <circle cx="576" cy="232" r="46" fill="#D9A27D"/>
    <path d="M526 206C536 170 554 156 577 156C603 156 624 176 626 214C613 210 604 208 576 208C551 208 543 209 526 216V206Z" fill="#7C3AED"/>
    <rect x="514" y="278" width="126" height="124" rx="28" fill="#14B8A6"/>
    <rect x="550" y="398" width="22" height="88" rx="11" fill="#334155"/>
    <rect x="586" y="398" width="22" height="88" rx="11" fill="#334155"/>
  </g>

  <g opacity="0.96">
    <path d="M352 454C376 430 405 430 430 454" stroke="#0F766E" stroke-width="12" stroke-linecap="round"/>
    <path d="M262 452C286 434 317 434 340 452" stroke="#0F766E" stroke-width="10" stroke-linecap="round"/>
    <path d="M472 452C496 434 527 434 550 452" stroke="#0F766E" stroke-width="10" stroke-linecap="round"/>
  </g>
</svg>